<?xml version="1.0" encoding="utf-8"?>
<!-- Generator: Adobe Illustrator 22.1.0, SVG Export Plug-In . SVG Version: 6.00 Build 0)  -->
<svg version="1.1" id="Layer_1" xmlns="http://www.w3.org/2000/svg" xmlns:xlink="http://www.w3.org/1999/xlink" x="0px" y="0px"
	 viewBox="0 0 512 512" style="enable-background:new 0 0 512 512;" xml:space="preserve">
<style type="text/css">
	.st0{fill:#FFFFFF;}
	.st1{fill:#475993;}
</style>
<g>
	<path class="st0" d="M468.9,499.1H30.2c-4.1,0-7.5-3.4-7.5-7.5V65.8c0-4.1,3.4-7.5,7.5-7.5h438.7c4.1,0,7.5,3.4,7.5,7.5v425.7
		C476.4,495.7,473,499.1,468.9,499.1z"/>
	<g>
		<g>
			<path class="st1" d="M436.7,6.5H75.4c-37,0-67,30-67,67v361.2c0,37,30,67,67,67h176.7l0.3-176.8h-44.4c-6,0-10.9-4.9-10.9-10.8
				l-0.2-56.8c0-6,4.9-10.9,10.9-10.9h44.3v-54.9c0-63.7,38-98.4,93.6-98.4h52.7c6,0,10.9,4.9,10.9,10.9v49c0,6-4.9,10.9-10.9,10.9
				l-29.7,0c-31.8,0-38,14.9-38,36.9v45.6h67.8c6.5,0.7,11.6,6.4,10.8,12.9l-6.8,57.3c-0.6,5.5-5.3,9.6-10.8,8.4h-61l-0.3,180.8
				h106.2c37,0,67-30,67-67V73.7C503.6,36.6,473.6,6.5,436.7,6.5z"/>
		</g>
	</g>
</g>
</svg>
