<?xml version="1.0" encoding="utf-8"?>
<!-- Generator: Adobe Illustrator 21.0.0, SVG Export Plug-In . SVG Version: 6.00 Build 0)  -->
<svg version="1.1" id="Layer_1" xmlns="http://www.w3.org/2000/svg" xmlns:xlink="http://www.w3.org/1999/xlink" x="0px" y="0px"
	 viewBox="0 0 15 10" style="enable-background:new 0 0 15 10;" xml:space="preserve">
<style type="text/css">
	.st0{fill:#FFFFFF;stroke:#FFFFFF;stroke-width:0.25;stroke-miterlimit:10;}
</style>
<g>
	<g>
		<g>
			<g>
				<path class="st0" d="M13.1,2H2.3C2,2,1.9,2.1,1.9,2.4V9c0,0.3,0.2,0.5,0.4,0.5h10.8c0.3,0,0.4-0.2,0.4-0.5V2.5
					C13.5,2.2,13.4,2,13.1,2z M2.3,2.4h10.8c0.1,0,0.1,0,0.1,0.1L7.7,6L2.3,2.4L2.3,2.4z M2.2,3l4,2.5l-4,3.2V3z M13.3,9.1
					C13.3,9.2,13.2,9.2,13.3,9.1L2.4,9.2c-0.1,0-0.1-0.1-0.1-0.1V9l4.3-3.5l1,0.7c0.1,0,0.2,0,0.2,0l1.1-0.7L13.3,9.1L13.3,9.1z
					 M13.3,8.6l-4-3.2l4-2.5C13.3,3,13.3,8.6,13.3,8.6z"/>
			</g>
		</g>
	</g>
</g>
</svg>
