<?xml version="1.0" encoding="utf-8"?>
<!-- Generator: Adobe Illustrator 21.0.0, SVG Export Plug-In . SVG Version: 6.00 Build 0)  -->
<svg version="1.1" id="Layer_1" xmlns="http://www.w3.org/2000/svg" xmlns:xlink="http://www.w3.org/1999/xlink" x="0px" y="0px"
	 viewBox="0 0 23 33" style="enable-background:new 0 0 23 33;" xml:space="preserve">
<style type="text/css">
	.st0{fill:#FFFFFF;}
</style>
<g>
	<g>
		<g>
			<g>
				<path class="st0" d="M11.7,0.8C5.4,0.8,0.4,5.9,0.4,12.2c0,2.1,0.6,4.2,1.7,5.9l9,14.5c0.2,0.3,0.5,0.4,0.8,0.4h0
					c0.3,0,0.6-0.2,0.8-0.5l8.7-14.6c1-1.7,1.6-3.7,1.6-5.8C23,5.9,17.9,0.8,11.7,0.8z M19.8,16.9l-8,13.3L3.7,17
					c-0.9-1.5-1.4-3.2-1.4-5c0-5.2,4.2-9.4,9.4-9.4s9.4,4.2,9.4,9.4C21.1,13.7,20.6,15.4,19.8,16.9z"/>
			</g>
		</g>
		<g>
			<g>
				<path class="st0" d="M11.7,6.4C8.6,6.4,6,8.9,6,12c0,3.1,2.5,5.7,5.7,5.7c3.2,0,5.7-2.6,5.7-5.7C17.3,8.9,14.8,6.4,11.7,6.4z
					 M11.7,15.8c-2.1,0-3.8-1.7-3.8-3.8c0-2.1,1.7-3.8,3.8-3.8s3.8,1.7,3.8,3.8C15.4,14.1,13.8,15.8,11.7,15.8z"/>
			</g>
		</g>
	</g>
</g>
</svg>
