<?xml version="1.0" encoding="utf-8"?>
<!-- Generator: Adobe Illustrator 22.1.0, SVG Export Plug-In . SVG Version: 6.00 Build 0)  -->
<svg version="1.1" id="Layer_1" xmlns="http://www.w3.org/2000/svg" xmlns:xlink="http://www.w3.org/1999/xlink" x="0px" y="0px"
	 viewBox="0 0 512 512" style="enable-background:new 0 0 512 512;" xml:space="preserve">
<style type="text/css">
	.st0{fill:#FF3939;}
	.st1{fill:#C90232;}
	.st2{fill:#ECECF1;}
	.st3{fill:#E2E2E7;}
</style>
<g>
	<g>
		<path class="st0" d="M431.9,11H80.1C39.8,11,7.2,53.2,7.2,105.3v301.4c0,52.1,32.6,94.3,72.9,94.3h351.8
			c40.3,0,72.9-42.2,72.9-94.3V105.3C504.8,53.2,472.2,11,431.9,11z"/>
		<path class="st1" d="M504.8,105.3v301.4c0,52.1-32.6,94.3-72.9,94.3H256V11h175.9C472.2,11,504.8,53.2,504.8,105.3z"/>
		<path class="st2" d="M265,197.7l-79.7-44.3v216.8l79.7-45.9l112.3-64.4L265,197.7z"/>
		<path class="st3" d="M376.8,259.9l-112.3,64.4V197.7L376.8,259.9z"/>
	</g>
</g>
</svg>
